<?xml version="1.0" standalone="no"?>
<!DOCTYPE svg PUBLIC "-//W3C//DTD SVG 20010904//EN"
 "http://www.w3.org/TR/2001/REC-SVG-20010904/DTD/svg10.dtd">
<svg version="1.0" xmlns="http://www.w3.org/2000/svg"
 width="192.000000pt" height="192.000000pt" viewBox="0 0 192.000000 192.000000"
 preserveAspectRatio="xMidYMid meet">
<metadata>
Created by potrace 1.14, written by Peter Selinger 2001-2017
</metadata>
<g transform="translate(0.000000,192.000000) scale(0.100000,-0.100000)"
fill="#000000" stroke="none">
<path d="M0 960 l0 -960 960 0 960 0 0 960 0 960 -960 0 -960 0 0 -960z m350
115 l0 -194 88 -3 87 -3 0 -30 0 -30 -120 0 -120 0 -3 215 c-1 118 0 220 2
227 3 7 19 13 36 13 l30 0 0 -195z m934 102 c14 -40 -17 -183 -47 -215 -12
-13 -46 -39 -74 -58 -55 -35 -67 -50 -33 -39 34 11 99 -5 130 -32 41 -34 43
-98 4 -136 -71 -72 -216 -58 -263 25 -24 41 -7 93 48 148 l49 49 -28 11 c-50
21 -75 57 -75 107 0 39 5 49 37 79 33 30 44 34 90 34 34 0 64 -7 84 -19 l31
-19 -8 40 c-5 21 -7 44 -3 49 12 19 48 4 58 -24z m-442 -43 c50 -24 71 -60 76
-126 6 -74 -2 -100 -39 -143 -59 -66 -161 -70 -229 -9 -83 75 -71 217 23 274
40 25 123 26 169 4z m746 2 c57 -30 76 -62 80 -135 6 -98 -29 -154 -111 -181
-151 -48 -275 135 -181 268 40 58 147 82 212 48z"/>
<path d="M1077 1072 c-54 -59 34 -133 101 -86 27 19 29 64 4 87 -25 23 -85 22
-105 -1z"/>
<path d="M1073 803 c-22 -8 -15 -60 9 -77 49 -35 138 -9 138 39 0 14 -8 29
-19 35 -20 10 -106 13 -128 3z"/>
<path d="M702 1070 c-27 -26 -36 -60 -29 -112 7 -55 34 -80 87 -82 34 -1 46 4
66 27 39 46 31 139 -15 174 -25 20 -84 16 -109 -7z"/>
<path d="M1462 1083 c-22 -9 -42 -60 -42 -107 0 -63 31 -98 89 -100 59 -1 91
35 91 104 0 66 -35 110 -88 109 -21 0 -43 -3 -50 -6z"/>
</g>
</svg>
